# AST/ASF file generated using VICON BodyLanguage
# -----------------------------------------------
:version 1.10
:name VICON
:units
  mass 1.0
  length 0.45
  angle deg
:documentation
   .ast/.asf automatically generated from VICON data using
   VICON BodyBuilder and BodyLanguage model FoxedUp or BRILLIANT.MOD
:root
   order TX TY TZ RX RY RZ
   axis XYZ
   position 0 0 0  
   orientation 0 0 0 
:bonedata
  begin
     id 1 
     name lhipjoint
     direction 0.621563 -0.714088 0.322083 
     length 2.21591 
     axis 0 0 0  XYZ
  end
  begin
     id 2 
     name lfemur
     direction 0.34202 -0.939693 0  
     length 6.84027  
     axis 0 0 20  XYZ
    dof rx ry rz
    limits (-160.0 20.0)
           (-70.0 70.0)
           (-60.0 70.0)
  end
  begin
     id 3 
     name ltibia
     direction 0.34202 -0.939693 0   
     length 6.74005   
     axis 0 0 20   XYZ
    dof rx
    limits (-10.0 170.0)
  end
  begin
     id 4 
     name lfoot
     direction 0.0348332 -0.0960526 0.994767   
     length 1.54672   
     axis -90 7.62852e-016 20   XYZ
    dof rx rz
    limits (-45.0 90.0)
           (-70.0 20.0)
  end
  begin
     id 5 
     name ltoes
     direction 1.53538e-011 -4.22089e-011 1   
     length 0.792077   
     axis -90 7.62852e-016 20   XYZ
    dof rx
    limits (-90.0 20.0)
  end
  begin
     id 6 
     name rhipjoint
     direction -0.648389 -0.693984 0.313015   
     length 2.2801  
     axis 0 0 0  XYZ 
  end
  begin
     id 7 
     name rfemur
     direction -0.34202 -0.939693 0   
     length 6.62341   
     axis 0 0 -20   XYZ
    dof rx ry rz
    limits (-160.0 20.0)
           (-70.0 70.0)
           (-70.0 60.0)
  end
  begin
     id 8 
     name rtibia
     direction -0.34202 -0.939693 0   
     length 6.63811   
     axis 0 0 -20   XYZ
    dof rx
    limits (-10.0 170.0)
 end
 begin
     id 9 
     name rfoot
     direction -0.0578404 -0.158915 0.985596   
     length 1.64992  
     axis -90 -7.62852e-016 -20   XYZ
    dof rx rz
    limits (-45.0 90.0)
           (-20.0 70.0)
  end
  begin
     id 10 
     name rtoes
     direction -1.53571e-011 -4.21911e-011 1   
     length 0.839909   
     axis -90 -7.62852e-016 -20   XYZ
    dof rx
    limits (-90.0 20.0)
  end
  begin
     id 11 
     name lowerback
     direction 0.000554472 0.999997 -0.00226605   
     length 1.81878   
     axis 0 0 0   XYZ
    dof rx ry rz
    limits (-20.0 45.0)
           (-30.0 30.0)
           (-30.0 30.0)
  end
  begin
     id 12 
     name upperback
     direction 0.00177008 0.999761 -0.021771   
     length 1.81977   
     axis 0 0 0   XYZ
    dof rx ry rz
    limits (-20.0 45.0)
           (-30.0 30.0)
           (-30.0 30.0)
  end
  begin
     id 13 
     name thorax
     direction 0.00134147 0.999799 -0.0200243   
     length 1.81422   
     axis 0 0 0   XYZ
    dof rx ry rz
    limits (-20.0 45.0)
           (-30.0 30.0)
           (-30.0 30.0)
  end
  begin
     id 14 
     name lowerneck
     direction -0.0819714 0.987506 0.134583   
     length 1.68295   
     axis 0 0 0   XYZ
    dof rx ry rz
    limits (-20.0 45.0)
           (-30.0 30.0)
           (-30.0 30.0)
  end
  begin
     id 15 
     name upperneck
     direction 0.0867129 0.969666 -0.228538   
     length 1.71188   
     axis 0 0 0   XYZ
    dof rx ry rz
    limits (-20.0 45.0)
           (-30.0 30.0)
           (-30.0 30.0)
  end
  begin
     id 16
     name head
     direction 0.023699 0.995021 -0.0968101  
     length 1.73365  
     axis 0 0 0   XYZ
    dof rx ry rz
    limits (-20.0 45.0)
           (-30.0 30.0)
           (-30.0 30.0)
  end
  begin
     id 17 
     name lclavicle
     direction 0.912847 0.398248 0.090054  
     length 3.56518  
     axis 0 0 0   XYZ
    dof ry rz
    limits (-20.0 10.0)
           (0.0 20.0)
  end
  begin
     id 18 
     name lhumerus
     direction 1 -4.48961e-011 -4.05442e-028   
     length 4.05444   
     axis 180 -30 -90   XYZ
    dof rx ry rz
    limits (-60.0 90.0)
           (-90.0 90.0)
           (-90.0 90.0)
  end
  begin
     id 19
     name lradius
     direction 1 -4.4897e-011 1.54979e-027   
     length 3.21205   
     axis 180 -30 -90   XYZ
    dof rx
    limits (-10.0 170.0)
  end
  begin
     id 20
     name lwrist
     direction 1 -4.48979e-011 1.55564e-027   
     length 1.60602   
     axis -1.61768e-015 90 90   XYZ
    dof ry
    limits (-180.0 0.0)
 end
  begin
     id 21 
     name lhand
     direction 1 -4.48877e-011 3.11128e-027   
     length 0.707407   
     axis -1.98526e-015 90 90   XYZ
    dof rx rz
    limits (-90.0 90.0)
           (-45.0 45.0)
  end
  begin
     id 22 
     name lfingers
     direction 1 -4.49016e-011 6.22255e-027   
     length 0.57033   
     axis -3.97052e-015 90 90   XYZ
    dof rx
    limits (0.0 90.0)
  end
  begin
     id 23
     name lthumb
     direction 0.707107 -6.35011e-011 0.707107   
     length 0.818883   
     axis -90 45 2.85299e-015   XYZ
    dof rx rz
    limits (-45.0 45.0)
           (-45.0 45.0)
  end
  begin
     id 24 
     name rclavicle
     direction -0.930415 0.353791 0.0957082   
     length 3.54688  
     axis 0 0 0   XYZ 
    dof ry rz
    limits (-10.0 20.0)
           (-20.0 0.0)
  end
  begin
     id 25 
     name rhumerus
     direction -1 -4.48952e-011 -8.4136e-018  
     length 3.74048   
     axis 180 30 90   XYZ
    dof rx ry rz
    limits (-90.0 60.0)
           (-90.0 90.0)
           (-90.0 90.0)
  end
  begin
     id 26 
     name rradius
     direction -1 -4.48964e-011 1.66692e-027   
     length 3.1603   
     axis 180 30 90   XYZ
    dof rx
    limits (-10.0 170.0)
  end
  begin
     id 27 
     name rwrist
     direction -1 -4.49008e-011 1.55564e-027   
     length 1.58015   
     axis -1.61768e-015 -90 -90   XYZ
    dof ry
    limits (-180.0 0.0)
  end
  begin
     id 28
     name rhand
     direction -1 -4.48922e-011 3.11128e-027   
     length 0.717028   
     axis -1.98526e-015 -90 -90   XYZ
    dof rx rz
    limits (-90.0 90.0)
           (-45.0 45.0)
  end
  begin
     id 29
     name rfingers
     direction -1 -4.49002e-011 6.22255e-027   
     length 0.578086   
     axis -3.97052e-015 -90 -90   XYZ
    dof rx
    limits (0.0 90.0)
  end
  begin
     id 30
     name rthumb
     direction -0.707107 -6.34899e-011 0.707107   
     length 0.83002   
     axis -90 -45 -2.85299e-015   XYZ
    dof rx rz
    limits (-45.0 45.0)
           (-45.0 45.0)
  end
:hierarchy
  begin
    root lhipjoint rhipjoint lowerback
    lhipjoint lfemur
    lfemur ltibia
    ltibia lfoot
    lfoot ltoes
    rhipjoint rfemur
    rfemur rtibia
    rtibia rfoot
    rfoot rtoes
    lowerback upperback
    upperback thorax
    thorax lowerneck lclavicle rclavicle
    lowerneck upperneck
    upperneck head
    lclavicle lhumerus
    lhumerus lradius
    lradius lwrist
    lwrist lhand lthumb
    lhand lfingers
    rclavicle rhumerus
    rhumerus rradius
    rradius rwrist
    rwrist rhand rthumb
    rhand rfingers
  end

#!OML:ASF G:\acrobat\cartwheel_test\acrobat_wednesday\Session 1\acrobatwednesday.ASF
:FULLY-SPECIFIED
:DEGREES
116
root 16.3447 17.1832 0.244247 134.866 86.4333 116.516
lowerback 9.84256 -1.0255 -0.651937
upperback 9.79107 -0.878116 0.242746
thorax 4.73777 -0.273084 0.68363
lowerneck -17.5201 -1.72674 -4.13767
upperneck 22.5767 -1.2026 0.872961
head 10.135 -0.725673 0.849206
rclavicle -1.03368e-014 -5.76476e-015
rhumerus -48.5418 -3.33209 2.11214
rradius 19.0942
rwrist 20.0656
rhand -28.9011 -9.28486
rfingers 7.12502
rthumb -2.25619 -39.2527
lclavicle -1.03368e-014 -5.76476e-015
lhumerus -41.5635 -24.8882 12.923
lradius 20.7057
lwrist 42.7242
lhand -38.2497 1.0308
lfingers 7.12502
lthumb -11.2801 30.7075
rfemur -41.5044 -4.01978 16.491
rtibia 34.3196
rfoot -22.9152 -16.8768
rtoes 18.1637
lfemur -43.5733 5.76924 -25.0798
ltibia 35.9091
lfoot -7.21511 -19.5254
ltoes -31.9028
117
root 16.1569 17.0073 0.22126 138.411 86.5371 118.164
lowerback 10.3603 -1.216 -0.336451
upperback 10.482 -1.04511 0.4976
thorax 5.20413 -0.322197 0.788633
lowerneck -16.9908 -1.86658 -4.58986
upperneck 20.3332 -1.25336 0.394483
head 9.24803 -0.837471 0.745643
rclavicle 1.27222e-014 -1.86858e-014
rhumerus -53.6537 -4.23288 9.48309
rradius 17.926
rwrist 27.9767
rhand -29.6692 -8.75519
rfingers 7.12502
rthumb -2.99795 -38.7139
lclavicle 1.27222e-014 -1.86858e-014
lhumerus -45.7635 -19.0874 8.55193
lradius 18.1198
lwrist 37.3979
lhand -40.2034 4.51125
lfingers 7.12502
lthumb -13.1638 34.0757
rfemur -46.6039 -4.28061 16.578
rtibia 38.1515
rfoot -22.4852 -16.7195
rtoes 19.0971
lfemur -48.7263 4.65865 -24.9084
ltibia 39.4721
lfoot -7.15585 -19.2468
ltoes -32.3152
118
root 15.9869 16.7955 0.201653 141.707 86.7178 119.529
lowerback 10.7588 -1.39916 -0.0198692
upperback 10.989 -1.21539 0.670472
thorax 5.53883 -0.374315 0.808043
lowerneck -16.5722 -2.07047 -5.06418
upperneck 18.3298 -1.46257 0.250294
head 8.49499 -0.974322 0.748072
rclavicle -2.34566e-014 -5.32743e-014
rhumerus -58.8565 -2.5301 13.009
rradius 17.5663
rwrist 30.3793
rhand -28.9759 -14.7352
rfingers 7.12502
rthumb -2.32841 -44.7022
lclavicle -2.34566e-014 -5.32743e-014
lhumerus -52.5495 -19.8847 9.21314
lradius 17.0292
lwrist 40.0026
lhand -42.4736 4.83648
lfingers 7.12502
lthumb -15.3514 34.2466
rfemur -51.5013 -4.21003 16.6657
rtibia 41.7289
rfoot -22.325 -16.1226
rtoes 20.0814
lfemur -53.7267 3.62749 -24.4939
ltibia 42.8012
lfoot -6.90823 -18.8385
ltoes -33.4618
119
root 15.8316 16.5462 0.186676 140.844 87.0211 116.839
lowerback 11.1224 -1.48824 0.103963
upperback 11.3603 -1.28285 0.706914
thorax 5.74662 -0.387125 0.786814
lowerneck -16.1853 -2.22275 -5.48364
upperneck 16.3968 -1.65526 0.304321
head 7.78856 -1.07111 0.814067
rclavicle 3.71727e-014 4.73108e-014
rhumerus -64.1603 -1.52139 16.8242
rradius 17.1994
rwrist 33.2504
rhand -29.6463 -15.0543
rfingers 7.12502
rthumb -2.97586 -45.0133
lclavicle 3.71727e-014 4.73108e-014
lhumerus -61.1633 -22.1016 13.6637
lradius 17.5359
lwrist 46.405
lhand -43.508 2.30923
lfingers 7.12502
lthumb -16.3475 31.6403
rfemur -56.2053 -3.83192 16.7594
rtibia 45.2295
rfoot -22.162 -15.3488
rtoes 20.3644
lfemur -58.4932 2.89924 -23.9608
ltibia 46.0368
lfoot -6.2157 -18.3755
ltoes -34.7802
120
root 15.6902 16.2537 0.171137 135.547 87.3607 109.859
lowerback 11.3736 -1.47723 0.0990214
upperback 11.6192 -1.23757 0.612002
thorax 5.892 -0.352245 0.691242
lowerneck -15.7965 -2.24912 -5.79851
upperneck 14.4337 -1.73439 0.540045
head 7.08223 -1.08473 0.9372
rclavicle -2.92213e-014 -3.33958e-014
rhumerus -70.581 3.07923 11.7869
rradius 18.2733
rwrist 23.4724
rhand -30.3158 -18.6147
rfingers 7.12502
rthumb -3.62244 -48.5637
lclavicle -2.92213e-014 -3.33958e-014
lhumerus -63.5307 -13.3866 4.06399
lradius 15.6388
lwrist 35.4328
lhand -42.9383 -0.668041
lfingers 7.12502
lthumb -15.7989 28.7073
rfemur -60.7732 -3.36213 16.9298
rtibia 48.7117
rfoot -22.183 -13.8283
rtoes 19.2344
lfemur -63.0924 2.33765 -23.345
ltibia 49.4058
lfoot -5.0836 -17.6342
ltoes -35.8318
121
root 15.5653 15.9225 0.156593 127.347 87.5877 100.105
lowerback 11.6468 -1.36465 0.162436
upperback 11.6556 -1.07148 0.369707
thorax 5.77392 -0.253542 0.394754
lowerneck -15.3818 -2.24277 -5.9456
upperneck 12.3465 -1.83616 0.988048
head 6.34407 -1.07891 1.0992
rclavicle -2.26615e-014 -3.50855e-014
rhumerus -76.3826 1.86701 15.9926
rradius 17.9923
rwrist 24.9686
rhand -29.8694 -15.3144
rfingers 7.12502
rthumb -3.19134 -45.2703
lclavicle -2.26615e-014 -3.50855e-014
lhumerus -69.12 -11.1608 3.32182
lradius 15.3144
lwrist 32.9442
lhand -45.8713 -0.395276
lfingers 7.12502
lthumb -18.6219 28.7334
rfemur -65.1187 -3.06647 17.2537
rtibia 52.0836
rfoot -22.3609 -11.1697
rtoes 17.8159
lfemur -67.5352 1.81966 -22.7507
ltibia 52.9207
lfoot -3.55685 -16.6179
ltoes -37.0444
